<svg width="96" height="48" viewBox="0 0 96 48" fill="none" xmlns="http://www.w3.org/2000/svg">
<path fill-rule="evenodd" clip-rule="evenodd" d="M24 11.7675C19.0242 9.78977 13.2279 11.7246 10.4728 16.53C7.44093 21.8181 9.24016 28.5801 14.4915 31.6332L23.4828 36.8605C23.8029 37.0465 24.1971 37.0465 24.5172 36.8605L33.5085 31.6332C38.7598 28.5801 40.5591 21.8181 37.5272 16.53C34.7721 11.7246 28.9758 9.78977 24 11.7675ZM28.4295 31.3788C27.9713 31.6452 27.4585 31.1288 27.7231 30.6674L29.4895 27.5863C31.9287 23.3319 31.241 18.1235 28.1443 14.66C27.841 14.3207 28.0394 13.7655 28.4919 13.7922C31.1608 13.9496 33.7018 15.413 35.1385 17.9188C37.4087 21.8784 36.0615 26.9416 32.1294 29.2277L28.4295 31.3788Z" fill="#2C2C2C"/>
<path d="M53.4103 31V16.4545H56.4856V28.4645H62.7214V31H53.4103ZM71.2969 26.3551V20.0909H74.3224V31H71.4176V29.0185H71.304C71.0578 29.6577 70.6482 30.1714 70.0753 30.5597C69.5071 30.9479 68.8134 31.142 67.9943 31.142C67.2652 31.142 66.6236 30.9763 66.0696 30.6449C65.5156 30.3134 65.0824 29.8423 64.7699 29.2315C64.4621 28.6207 64.3059 27.8892 64.3011 27.0369V20.0909H67.3267V26.4972C67.3314 27.1411 67.5043 27.6501 67.8452 28.0241C68.1861 28.3982 68.643 28.5852 69.2159 28.5852C69.5805 28.5852 69.9214 28.5024 70.2386 28.3366C70.5559 28.1662 70.8116 27.9152 71.0057 27.5838C71.2045 27.2524 71.3016 26.8428 71.2969 26.3551ZM86.513 20.0909L82.6991 31H79.29L75.4761 20.0909H78.6721L80.9377 27.8963H81.0513L83.3099 20.0909H86.513Z" fill="#2C2C2C"/>
</svg>
